<?xml version="1.0" encoding="UTF-8" standalone="no"?>
<!-- Created with Inkscape (http://www.inkscape.org/) -->

<svg
   xmlns:dc="http://purl.org/dc/elements/1.1/"
   xmlns:cc="http://creativecommons.org/ns#"
   xmlns:rdf="http://www.w3.org/1999/02/22-rdf-syntax-ns#"
   xmlns:svg="http://www.w3.org/2000/svg"
   xmlns="http://www.w3.org/2000/svg"
   version="1.1"
   width="80"
   height="80"
   id="svg3921">
  <defs
     id="defs3923">
    <clipPath
       id="clipPath3943">
      <path
         d="M 0,64 64,64 64,0 0,0 0,64 z"
         id="path3945" />
    </clipPath>
    <clipPath
       id="clipPath3963">
      <path
         d="m 24,43 16,0 0,-16 -16,0 0,16 z"
         id="path3965" />
    </clipPath>
    <clipPath
       id="clipPath3987">
      <path
         d="m 18,32 5,0 0,-5 -5,0 0,5 z"
         id="path3989" />
    </clipPath>
    <clipPath
       id="clipPath4009">
      <path
         d="m 40,48 8,0 0,-8 -8,0 0,8 z"
         id="path4011" />
    </clipPath>
    <clipPath
       id="clipPath4029">
      <path
         d="m 14,20 36,0 0,-8 -36,0 0,8 z"
         id="path4031" />
    </clipPath>
    <clipPath
       id="clipPath2999">
      <path
         d="M 0,64 64,64 64,0 0,0 0,64 z"
         id="path3001" />
    </clipPath>
    <clipPath
       id="clipPath3011">
      <path
         d="m 16,50 32,0 0,-40 -32,0 0,40 z"
         id="path3013" />
    </clipPath>
    <clipPath
       id="clipPath3031">
      <path
         d="m 37.016,40.7064 10.984,0 0,-9.7064 -10.984,0 0,9.7064 z"
         id="path3033" />
    </clipPath>
    <clipPath
       id="clipPath3051">
      <path
         d="m 22,42 9.625,0 0,-2 -9.625,0 0,2 z"
         id="path3053" />
    </clipPath>
    <clipPath
       id="clipPath3065">
      <path
         d="m 22,32 20,0 0,-2 -20,0 0,2 z"
         id="path3067" />
    </clipPath>
    <clipPath
       id="clipPath3079">
      <path
         d="m 22,37 20,0 0,-2 -20,0 0,2 z"
         id="path3081" />
    </clipPath>
    <clipPath
       id="clipPath3093">
      <path
         d="m 22,27 20,0 0,-2 -20,0 0,2 z"
         id="path3095" />
    </clipPath>
    <clipPath
       id="clipPath3107">
      <path
         d="m 22,22 20,0 0,-2 -20,0 0,2 z"
         id="path3109" />
    </clipPath>
    <clipPath
       id="clipPath4113">
      <path
         d="M 0,64 64,64 64,0 0,0 0,64 z"
         id="path4115" />
    </clipPath>
    <clipPath
       id="clipPath4125">
      <path
         d="m 9,44.3637 46,0 L 55,16 9,16 9,44.3637 z"
         id="path4127" />
    </clipPath>
    <clipPath
       id="clipPath3834">
      <path
         d="M 0,64 64,64 64,0 0,0 0,64 z"
         id="path3836" />
    </clipPath>
    <clipPath
       id="clipPath3846">
      <path
         d="m 12,42 40,0 0,-26 -40,0 0,26 z"
         id="path3848" />
    </clipPath>
    <clipPath
       id="clipPath3874">
      <path
         d="m 12,42 40,0 0,-9 -40,0 0,9 z"
         id="path3876" />
    </clipPath>
    <clipPath
       id="clipPath3615">
      <path
         d="M 0,64 64,64 64,0 0,0 0,64 z"
         id="path3617" />
    </clipPath>
    <clipPath
       id="clipPath3627">
      <path
         d="m 13,47.0663 32,0 0,-34.1326 -32,0 0,34.1326 z"
         id="path3629" />
    </clipPath>
    <clipPath
       id="clipPath3674">
      <path
         d="M 0,64 64,64 64,0 0,0 0,64 z"
         id="path3676" />
    </clipPath>
    <clipPath
       id="clipPath3686">
      <path
         d="m 12.2873,54 39.4254,0 0,-48 -39.4254,0 0,48 z"
         id="path3688" />
    </clipPath>
    <clipPath
       id="clipPath3193">
      <path
         d="M 0,64 64,64 64,0 0,0 0,64 z"
         id="path3195" />
    </clipPath>
    <clipPath
       id="clipPath3205">
      <path
         d="M 12,50 52,50 52,8 12,8 12,50 z"
         id="path3207" />
    </clipPath>
    <clipPath
       id="clipPath3733">
      <path
         d="M 0,64 64,64 64,0 0,0 0,64 z"
         id="path3735" />
    </clipPath>
    <clipPath
       id="clipPath3745">
      <path
         d="m 8.45947,40.0004 47.08103,0 0,-20.0009 -47.08103,0 0,20.0009 z"
         id="path3747" />
    </clipPath>
    <clipPath
       id="clipPath3765">
      <path
         d="m 23.4994,49.0008 17.0012,0 0,-38.0013 -17.0012,0 0,38.0013 z"
         id="path3767" />
    </clipPath>
  </defs>
  <metadata
     id="metadata3926">
    <rdf:RDF>
      <cc:Work
         rdf:about="">
        <dc:format>image/svg+xml</dc:format>
        <dc:type
           rdf:resource="http://purl.org/dc/dcmitype/StillImage" />
        <dc:title></dc:title>
      </cc:Work>
    </rdf:RDF>
  </metadata>
  <g
     transform="translate(0,-972.36218)"
     id="layer1">
    <g
       transform="matrix(1.25,0,0,-1.25,0,1052.3622)"
       id="g3727">
      <g
         id="g3729">
        <g
           clip-path="url(#clipPath3733)"
           id="g3731">
          <g
             transform="translate(64,32)"
             id="g3737">
            <path
               d="m 0,0 c 0,-17.673 -14.327,-32 -32,-32 -17.673,0 -32,14.327 -32,32 0,17.673 14.327,32 32,32 C -14.327,32 0,17.673 0,0"
               id="path3739"
               style="fill:#76c2af;fill-opacity:1;fill-rule:nonzero;stroke:none" />
          </g>
          <g
             id="g3741">
            <g
               id="g3743" />
            <g
               id="g3749">
              <g
                 clip-path="url(#clipPath3745)"
                 id="g3751"
                 style="opacity:0.19999701">
                <g
                   transform="translate(42.4614,19.9995)"
                   id="g3753">
                  <path
                     d="m 0,0 c -0.671,0 -1.326,0.338 -1.705,0.951 -0.579,0.94 -0.287,2.172 0.653,2.752 L 9.072,9.945 C 9.077,9.962 9.079,9.981 9.079,10 c 0,0.02 -0.002,0.039 -0.007,0.056 l -10.124,6.242 c -0.94,0.58 -1.232,1.812 -0.653,2.752 0.58,0.94 1.812,1.233 2.753,0.653 l 10.63,-6.554 0.165,-0.165 C 12.64,12.187 13.079,11.128 13.079,10 13.079,8.874 12.64,7.814 11.843,7.018 L 11.678,6.852 1.048,0.298 C 0.721,0.096 0.358,0 0,0"
                     id="path3755"
                     style="fill:#231f20;fill-opacity:1;fill-rule:nonzero;stroke:none" />
                </g>
                <g
                   transform="translate(21.5386,19.9995)"
                   id="g3757">
                  <path
                     d="m 0,0 c -0.358,0 -0.721,0.096 -1.048,0.298 l -10.63,6.554 -0.165,0.166 c -0.797,0.796 -1.236,1.856 -1.236,2.982 0,1.128 0.439,2.187 1.236,2.984 l 0.165,0.165 10.63,6.554 c 0.941,0.58 2.172,0.287 2.753,-0.653 0.579,-0.94 0.287,-2.172 -0.653,-2.752 L -9.072,10.056 C -9.077,10.039 -9.079,10.02 -9.079,10 c 0,-0.019 0.002,-0.038 0.007,-0.055 L 1.052,3.703 C 1.992,3.123 2.284,1.891 1.705,0.951 1.327,0.338 0.671,0 0,0"
                     id="path3759"
                     style="fill:#231f20;fill-opacity:1;fill-rule:nonzero;stroke:none" />
                </g>
              </g>
            </g>
          </g>
          <g
             id="g3761">
            <g
               id="g3763" />
            <g
               id="g3769">
              <g
                 clip-path="url(#clipPath3765)"
                 id="g3771"
                 style="opacity:0.19999701">
                <g
                   transform="translate(25.4995,10.9995)"
                   id="g3773">
                  <path
                     d="m 0,0 c -0.237,0 -0.479,0.042 -0.714,0.132 -1.032,0.395 -1.548,1.551 -1.154,2.583 l 13,34 c 0.395,1.032 1.551,1.549 2.583,1.154 1.032,-0.395 1.548,-1.551 1.154,-2.583 l -13,-34 C 1.564,0.489 0.805,0 0,0"
                     id="path3775"
                     style="fill:#231f20;fill-opacity:1;fill-rule:nonzero;stroke:none" />
                </g>
              </g>
            </g>
          </g>
          <g
             transform="translate(42.4614,22)"
             id="g3777">
            <path
               d="m 0,0 c -0.671,0 -1.327,0.337 -1.705,0.95 -0.579,0.941 -0.287,2.173 0.654,2.752 L 9.071,9.943 c 0.011,0.037 0.011,0.077 0,0.114 l -10.122,6.241 c -0.941,0.579 -1.233,1.811 -0.654,2.752 0.58,0.94 1.811,1.233 2.752,0.652 l 10.631,-6.554 0.166,-0.165 c 1.644,-1.645 1.644,-4.321 0,-5.966 L 11.678,6.852 1.047,0.298 C 0.721,0.096 0.358,0 0,0"
               id="path3779"
               style="fill:#ffffff;fill-opacity:1;fill-rule:nonzero;stroke:none" />
          </g>
          <g
             transform="translate(21.5386,22)"
             id="g3781">
            <path
               d="m 0,0 c -0.358,0 -0.72,0.096 -1.047,0.298 l -10.631,6.554 -0.166,0.165 c -1.644,1.645 -1.644,4.321 0,5.966 l 0.166,0.165 10.631,6.554 C -0.108,20.283 1.125,19.99 1.705,19.05 2.284,18.109 1.992,16.877 1.051,16.298 L -9.071,10.057 c -0.011,-0.037 -0.011,-0.077 0,-0.114 L 1.051,3.702 C 1.992,3.123 2.284,1.891 1.705,0.95 1.327,0.337 0.671,0 0,0"
               id="path3783"
               style="fill:#ffffff;fill-opacity:1;fill-rule:nonzero;stroke:none" />
          </g>
          <g
             transform="translate(25.4995,12.999)"
             id="g3785">
            <path
               d="m 0,0 c -0.237,0 -0.479,0.043 -0.714,0.133 -1.032,0.394 -1.548,1.551 -1.154,2.582 l 13,34 c 0.395,1.031 1.551,1.55 2.583,1.154 1.032,-0.394 1.548,-1.551 1.154,-2.582 l -13,-34 C 1.564,0.49 0.805,0 0,0"
               id="path3787"
               style="fill:#ffffff;fill-opacity:1;fill-rule:nonzero;stroke:none" />
          </g>
        </g>
      </g>
    </g>
  </g>
</svg>
