<?xml version="1.0" encoding="UTF-8" standalone="no"?>
<!-- Created with Inkscape (http://www.inkscape.org/) -->

<svg
   xmlns:dc="http://purl.org/dc/elements/1.1/"
   xmlns:cc="http://creativecommons.org/ns#"
   xmlns:rdf="http://www.w3.org/1999/02/22-rdf-syntax-ns#"
   xmlns:svg="http://www.w3.org/2000/svg"
   xmlns="http://www.w3.org/2000/svg"
   xmlns:sodipodi="http://sodipodi.sourceforge.net/DTD/sodipodi-0.dtd"
   xmlns:inkscape="http://www.inkscape.org/namespaces/inkscape"
   width="80"
   height="80"
   id="svg3921"
   version="1.1"
   inkscape:version="0.48.4 r9939"
   sodipodi:docname="post.svg">
  <defs
     id="defs3923">
    <clipPath
       id="clipPath3943"
       clipPathUnits="userSpaceOnUse">
      <path
         inkscape:connector-curvature="0"
         id="path3945"
         d="M 0,64 64,64 64,0 0,0 0,64 z" />
    </clipPath>
    <clipPath
       id="clipPath3963"
       clipPathUnits="userSpaceOnUse">
      <path
         inkscape:connector-curvature="0"
         id="path3965"
         d="m 24,43 16,0 0,-16 -16,0 0,16 z" />
    </clipPath>
    <clipPath
       id="clipPath3987"
       clipPathUnits="userSpaceOnUse">
      <path
         inkscape:connector-curvature="0"
         id="path3989"
         d="m 18,32 5,0 0,-5 -5,0 0,5 z" />
    </clipPath>
    <clipPath
       id="clipPath4009"
       clipPathUnits="userSpaceOnUse">
      <path
         inkscape:connector-curvature="0"
         id="path4011"
         d="m 40,48 8,0 0,-8 -8,0 0,8 z" />
    </clipPath>
    <clipPath
       id="clipPath4029"
       clipPathUnits="userSpaceOnUse">
      <path
         inkscape:connector-curvature="0"
         id="path4031"
         d="m 14,20 36,0 0,-8 -36,0 0,8 z" />
    </clipPath>
    <clipPath
       id="clipPath2999"
       clipPathUnits="userSpaceOnUse">
      <path
         inkscape:connector-curvature="0"
         id="path3001"
         d="M 0,64 64,64 64,0 0,0 0,64 z" />
    </clipPath>
    <clipPath
       id="clipPath3011"
       clipPathUnits="userSpaceOnUse">
      <path
         inkscape:connector-curvature="0"
         id="path3013"
         d="m 16,50 32,0 0,-40 -32,0 0,40 z" />
    </clipPath>
    <clipPath
       id="clipPath3031"
       clipPathUnits="userSpaceOnUse">
      <path
         inkscape:connector-curvature="0"
         id="path3033"
         d="m 37.016,40.7064 10.984,0 0,-9.7064 -10.984,0 0,9.7064 z" />
    </clipPath>
    <clipPath
       id="clipPath3051"
       clipPathUnits="userSpaceOnUse">
      <path
         inkscape:connector-curvature="0"
         id="path3053"
         d="m 22,42 9.625,0 0,-2 -9.625,0 0,2 z" />
    </clipPath>
    <clipPath
       id="clipPath3065"
       clipPathUnits="userSpaceOnUse">
      <path
         inkscape:connector-curvature="0"
         id="path3067"
         d="m 22,32 20,0 0,-2 -20,0 0,2 z" />
    </clipPath>
    <clipPath
       id="clipPath3079"
       clipPathUnits="userSpaceOnUse">
      <path
         inkscape:connector-curvature="0"
         id="path3081"
         d="m 22,37 20,0 0,-2 -20,0 0,2 z" />
    </clipPath>
    <clipPath
       id="clipPath3093"
       clipPathUnits="userSpaceOnUse">
      <path
         inkscape:connector-curvature="0"
         id="path3095"
         d="m 22,27 20,0 0,-2 -20,0 0,2 z" />
    </clipPath>
    <clipPath
       id="clipPath3107"
       clipPathUnits="userSpaceOnUse">
      <path
         inkscape:connector-curvature="0"
         id="path3109"
         d="m 22,22 20,0 0,-2 -20,0 0,2 z" />
    </clipPath>
    <clipPath
       id="clipPath4113"
       clipPathUnits="userSpaceOnUse">
      <path
         inkscape:connector-curvature="0"
         id="path4115"
         d="M 0,64 64,64 64,0 0,0 0,64 z" />
    </clipPath>
    <clipPath
       id="clipPath4125"
       clipPathUnits="userSpaceOnUse">
      <path
         inkscape:connector-curvature="0"
         id="path4127"
         d="m 9,44.3637 46,0 L 55,16 9,16 9,44.3637 z" />
    </clipPath>
  </defs>
  <sodipodi:namedview
     id="base"
     pagecolor="#ffffff"
     bordercolor="#666666"
     borderopacity="1.0"
     inkscape:pageopacity="0.0"
     inkscape:pageshadow="2"
     inkscape:zoom="3.959798"
     inkscape:cx="27.728951"
     inkscape:cy="48.104579"
     inkscape:document-units="px"
     inkscape:current-layer="layer1"
     showgrid="false"
     inkscape:window-width="1366"
     inkscape:window-height="705"
     inkscape:window-x="-4"
     inkscape:window-y="-4"
     inkscape:window-maximized="1" />
  <metadata
     id="metadata3926">
    <rdf:RDF>
      <cc:Work
         rdf:about="">
        <dc:format>image/svg+xml</dc:format>
        <dc:type
           rdf:resource="http://purl.org/dc/dcmitype/StillImage" />
        <dc:title></dc:title>
      </cc:Work>
    </rdf:RDF>
  </metadata>
  <g
     inkscape:label="Layer 1"
     inkscape:groupmode="layer"
     id="layer1"
     transform="translate(0,-972.36218)">
    <g
       transform="matrix(1.25,0,0,-1.25,0,1052.3622)"
       inkscape:label="Elegant_circle-icons_3"
       id="g4107">
      <g
         id="g4109">
        <g
           clip-path="url(#clipPath4113)"
           id="g4111">
          <g
             transform="translate(64,32)"
             id="g4117">
            <path
               id="path4119"
               style="fill:#76c2af;fill-opacity:1;fill-rule:nonzero;stroke:none"
               d="m 0,0 c 0,-17.673 -14.327,-32 -32,-32 -17.673,0 -32,14.327 -32,32 0,17.673 14.327,32 32,32 C -14.327,32 0,17.673 0,0"
               inkscape:connector-curvature="0" />
          </g>
          <g
             id="g4121">
            <g
               id="g4123" />
            <g
               id="g4129">
              <g
                 id="g4131"
                 clip-path="url(#clipPath4125)"
                 style="opacity:0.19999701">
                <g
                   id="g4133"
                   transform="translate(32,24.2005)">
                  <path
                     id="path4135"
                     style="fill:#231f20;fill-opacity:1;fill-rule:nonzero;stroke:none"
                     d="m 0,0 c 9.2,0 9.55,-3.051 13,-6.102 3.45,-3.052 10,-4.064 10,6.102 0,10.166 -4.6,16.273 -4.6,16.273 0,0 -4.4,7.526 -10.4,1.642 -4.274,-4.192 -11.726,-4.192 -16,0 -6,5.884 -10.4,-1.642 -10.4,-1.642 0,0 -4.6,-6.107 -4.6,-16.273 0,-10.166 6.55,-9.154 10,-6.102 C -9.55,-3.051 -9.2,0 0,0"
                     inkscape:connector-curvature="0" />
                </g>
              </g>
            </g>
          </g>
          <g
             transform="translate(32,27.2005)"
             id="g4137">
            <path
               id="path4139"
               style="fill:#4f5d73;fill-opacity:1;fill-rule:nonzero;stroke:none"
               d="m 0,0 c 9.2,0 9.55,-3.051 13,-6.102 3.45,-3.052 10,-4.064 10,6.102 0,10.166 -4.6,16.273 -4.6,16.273 0,0 -4.4,7.526 -10.4,1.642 -4.274,-4.192 -11.726,-4.192 -16,0 -6,5.884 -10.4,-1.642 -10.4,-1.642 0,0 -4.6,-6.107 -4.6,-16.273 0,-10.166 6.55,-9.154 10,-6.102 C -9.55,-3.051 -9.2,0 0,0"
               inkscape:connector-curvature="0" />
          </g>
          <g
             transform="translate(46,30)"
             id="g4141">
            <path
               id="path4143"
               style="fill:#e0e0d1;fill-opacity:1;fill-rule:nonzero;stroke:none"
               d="m 0,0 c 0,-1.105 -0.895,-2 -2,-2 -1.105,0 -2,0.895 -2,2 0,1.105 0.895,2 2,2 1.105,0 2,-0.895 2,-2"
               inkscape:connector-curvature="0" />
          </g>
          <g
             transform="translate(50,35)"
             id="g4145">
            <path
               id="path4147"
               style="fill:#e0e0d1;fill-opacity:1;fill-rule:nonzero;stroke:none"
               d="m 0,0 c 0,-1.105 -0.895,-2 -2,-2 -1.105,0 -2,0.895 -2,2 0,1.105 0.895,2 2,2 1.105,0 2,-0.895 2,-2"
               inkscape:connector-curvature="0" />
          </g>
          <g
             transform="translate(19,28.5046)"
             id="g4149">
            <path
               id="path4151"
               style="fill:#e0e0d1;fill-opacity:1;fill-rule:nonzero;stroke:none"
               d="M 0,0 C 0,-0.831 -0.672,-1.505 -1.5,-1.505 -2.328,-1.505 -3,-0.831 -3,0 l 0,6.991 c 0,0.831 0.672,1.504 1.5,1.504 0.828,0 1.5,-0.673 1.5,-1.504 L 0,0 z"
               inkscape:connector-curvature="0" />
          </g>
          <g
             transform="translate(14.0046,30.5)"
             id="g4153">
            <path
               id="path4155"
               style="fill:#e0e0d1;fill-opacity:1;fill-rule:nonzero;stroke:none"
               d="M 0,0 C -0.831,0 -1.505,0.672 -1.505,1.5 -1.505,2.328 -0.831,3 0,3 L 6.991,3 C 7.822,3 8.495,2.328 8.495,1.5 8.495,0.672 7.822,0 6.991,0 L 0,0 z"
               inkscape:connector-curvature="0" />
          </g>
        </g>
      </g>
    </g>
  </g>
</svg>
