<?xml version="1.0" encoding="UTF-8" standalone="no"?>
<!-- Created with Inkscape (http://www.inkscape.org/) -->

<svg
   xmlns:dc="http://purl.org/dc/elements/1.1/"
   xmlns:cc="http://creativecommons.org/ns#"
   xmlns:rdf="http://www.w3.org/1999/02/22-rdf-syntax-ns#"
   xmlns:svg="http://www.w3.org/2000/svg"
   xmlns="http://www.w3.org/2000/svg"
   version="1.1"
   width="80"
   height="80"
   id="svg3921">
  <defs
     id="defs3923">
    <clipPath
       id="clipPath3943">
      <path
         d="M 0,64 64,64 64,0 0,0 0,64 z"
         id="path3945" />
    </clipPath>
    <clipPath
       id="clipPath3963">
      <path
         d="m 24,43 16,0 0,-16 -16,0 0,16 z"
         id="path3965" />
    </clipPath>
    <clipPath
       id="clipPath3987">
      <path
         d="m 18,32 5,0 0,-5 -5,0 0,5 z"
         id="path3989" />
    </clipPath>
    <clipPath
       id="clipPath4009">
      <path
         d="m 40,48 8,0 0,-8 -8,0 0,8 z"
         id="path4011" />
    </clipPath>
    <clipPath
       id="clipPath4029">
      <path
         d="m 14,20 36,0 0,-8 -36,0 0,8 z"
         id="path4031" />
    </clipPath>
  </defs>
  <metadata
     id="metadata3926">
    <rdf:RDF>
      <cc:Work
         rdf:about="">
        <dc:format>image/svg+xml</dc:format>
        <dc:type
           rdf:resource="http://purl.org/dc/dcmitype/StillImage" />
        <dc:title></dc:title>
      </cc:Work>
    </rdf:RDF>
  </metadata>
  <g
     transform="translate(0,-972.36218)"
     id="layer1">
    <g
       transform="matrix(1.25,0,0,-1.25,0,1052.3622)"
       id="g3937">
      <g
         id="g3939">
        <g
           clip-path="url(#clipPath3943)"
           id="g3941">
          <g
             transform="translate(64,32)"
             id="g3947">
            <path
               d="m 0,0 c 0,-17.673 -14.327,-32 -32,-32 -17.673,0 -32,14.327 -32,32 0,17.673 14.327,32 32,32 C -14.327,32 0,17.673 0,0"
               id="path3949"
               style="fill:#e0995e;fill-opacity:1;fill-rule:nonzero;stroke:none" />
          </g>
          <g
             transform="translate(48,26)"
             id="g3951">
            <path
               d="m 0,0 c 0,-1.105 -0.895,-2 -2,-2 l -28,0 c -1.105,0 -2,0.895 -2,2 l 0,21.938 c 0,1.105 0.895,2 2,2 l 28,0 c 1.105,0 2,-0.895 2,-2 L 0,0 z"
               id="path3953"
               style="fill:#e0e0d1;fill-opacity:1;fill-rule:nonzero;stroke:none" />
          </g>
          <g
             transform="translate(14,24)"
             id="g3955">
            <path
               d="M 0,0 2,3 34,3 36,0 0,0 z"
               id="path3957"
               style="fill:#ffffff;fill-opacity:1;fill-rule:nonzero;stroke:none" />
          </g>
          <g
             id="g3959">
            <g
               id="g3961" />
            <g
               id="g3967">
              <g
                 clip-path="url(#clipPath3963)"
                 id="g3969"
                 style="opacity:0.19999701">
                <g
                   transform="translate(40,35)"
                   id="g3971">
                  <path
                     d="m 0,0 c 0,-4.418 -3.582,-8 -8,-8 -4.418,0 -8,3.582 -8,8 0,4.418 3.582,8 8,8 4.418,0 8,-3.582 8,-8"
                     id="path3973"
                     style="fill:#231f20;fill-opacity:1;fill-rule:nonzero;stroke:none" />
                </g>
              </g>
            </g>
          </g>
          <g
             transform="translate(32,30.5)"
             id="g3975">
            <path
               d="M 0,0 C -3.584,0 -6.5,2.916 -6.5,6.5 -6.5,10.084 -3.584,13 0,13 3.584,13 6.5,10.084 6.5,6.5 6.5,2.916 3.584,0 0,0"
               id="path3977"
               style="fill:#77b3d4;fill-opacity:1;fill-rule:nonzero;stroke:none" />
          </g>
          <g
             transform="translate(32,45)"
             id="g3979">
            <path
               d="m 0,0 c -4.418,0 -8,-3.582 -8,-8 0,-4.418 3.582,-8 8,-8 4.418,0 8,3.582 8,8 0,4.418 -3.582,8 -8,8 m 0,-3 c 2.757,0 5,-2.243 5,-5 0,-2.757 -2.243,-5 -5,-5 -2.757,0 -5,2.243 -5,5 0,2.757 2.243,5 5,5"
               id="path3981"
               style="fill:#4f5d73;fill-opacity:1;fill-rule:nonzero;stroke:none" />
          </g>
          <g
             id="g3983">
            <g
               id="g3985" />
            <g
               id="g3991">
              <g
                 clip-path="url(#clipPath3987)"
                 id="g3993"
                 style="opacity:0.19999701">
                <g
                   transform="translate(23,29.5)"
                   id="g3995">
                  <path
                     d="M 0,0 C 0,-1.381 -1.119,-2.5 -2.5,-2.5 -3.881,-2.5 -5,-1.381 -5,0 -5,1.381 -3.881,2.5 -2.5,2.5 -1.119,2.5 0,1.381 0,0"
                     id="path3997"
                     style="fill:#231f20;fill-opacity:1;fill-rule:nonzero;stroke:none" />
                </g>
              </g>
            </g>
          </g>
          <g
             transform="translate(23,31.5)"
             id="g3999">
            <path
               d="M 0,0 C 0,-1.381 -1.119,-2.5 -2.5,-2.5 -3.881,-2.5 -5,-1.381 -5,0 -5,1.381 -3.881,2.5 -2.5,2.5 -1.119,2.5 0,1.381 0,0"
               id="path4001"
               style="fill:#c75c5c;fill-opacity:1;fill-rule:nonzero;stroke:none" />
          </g>
          <path
             d="m 50,24 -36,0 0,-2 36,0 0,2 z"
             id="path4003"
             style="fill:#e0e0d1;fill-opacity:1;fill-rule:nonzero;stroke:none" />
          <g
             id="g4005">
            <g
               id="g4007" />
            <g
               id="g4013">
              <g
                 clip-path="url(#clipPath4009)"
                 id="g4015"
                 style="opacity:0.19999701">
                <g
                   transform="translate(40,42)"
                   id="g4017">
                  <path
                     d="m 0,0 c 0,-1.105 0.895,-2 2,-2 l 4,0 c 1.105,0 2,0.895 2,2 L 8,4 C 8,5.105 7.105,6 6,6 L 2,6 C 0.895,6 0,5.105 0,4 L 0,0 z"
                     id="path4019"
                     style="fill:#231f20;fill-opacity:1;fill-rule:nonzero;stroke:none" />
                </g>
              </g>
            </g>
          </g>
          <g
             transform="translate(40,44)"
             id="g4021">
            <path
               d="m 0,0 c 0,-1.105 0.895,-2 2,-2 l 4,0 c 1.105,0 2,0.895 2,2 L 8,4 C 8,5.105 7.105,6 6,6 L 2,6 C 0.895,6 0,5.105 0,4 L 0,0 z"
               id="path4023"
               style="fill:#4f5d73;fill-opacity:1;fill-rule:nonzero;stroke:none" />
          </g>
          <g
             id="g4025">
            <g
               id="g4027" />
            <g
               id="g4033">
              <g
                 clip-path="url(#clipPath4029)"
                 id="g4035"
                 style="opacity:0.19999701">
                <g
                   transform="translate(14,18)"
                   id="g4037">
                  <path
                     d="m 0,0 c 0,-3.314 2.686,-6 6,-6 l 24,0 c 3.314,0 6,2.686 6,6 L 36,2 0,2 0,0 z"
                     id="path4039"
                     style="fill:#231f20;fill-opacity:1;fill-rule:nonzero;stroke:none" />
                </g>
              </g>
            </g>
          </g>
          <g
             transform="translate(14,20)"
             id="g4041">
            <path
               d="m 0,0 c 0,-3.314 2.686,-6 6,-6 l 24,0 c 3.314,0 6,2.686 6,6 L 36,2 0,2 0,0 z"
               id="path4043"
               style="fill:#4f5d73;fill-opacity:1;fill-rule:nonzero;stroke:none" />
          </g>
        </g>
      </g>
    </g>
  </g>
</svg>
