<?xml version="1.0" encoding="UTF-8" standalone="no"?>
<!-- Created with Inkscape (http://www.inkscape.org/) -->

<svg
   xmlns:dc="http://purl.org/dc/elements/1.1/"
   xmlns:cc="http://creativecommons.org/ns#"
   xmlns:rdf="http://www.w3.org/1999/02/22-rdf-syntax-ns#"
   xmlns:svg="http://www.w3.org/2000/svg"
   xmlns="http://www.w3.org/2000/svg"
   xmlns:sodipodi="http://sodipodi.sourceforge.net/DTD/sodipodi-0.dtd"
   xmlns:inkscape="http://www.inkscape.org/namespaces/inkscape"
   width="80"
   height="80"
   id="svg3921"
   version="1.1"
   inkscape:version="0.48.4 r9939"
   sodipodi:docname="game.svg">
  <defs
     id="defs3923">
    <clipPath
       id="clipPath3943"
       clipPathUnits="userSpaceOnUse">
      <path
         inkscape:connector-curvature="0"
         id="path3945"
         d="M 0,64 64,64 64,0 0,0 0,64 z" />
    </clipPath>
    <clipPath
       id="clipPath3963"
       clipPathUnits="userSpaceOnUse">
      <path
         inkscape:connector-curvature="0"
         id="path3965"
         d="m 24,43 16,0 0,-16 -16,0 0,16 z" />
    </clipPath>
    <clipPath
       id="clipPath3987"
       clipPathUnits="userSpaceOnUse">
      <path
         inkscape:connector-curvature="0"
         id="path3989"
         d="m 18,32 5,0 0,-5 -5,0 0,5 z" />
    </clipPath>
    <clipPath
       id="clipPath4009"
       clipPathUnits="userSpaceOnUse">
      <path
         inkscape:connector-curvature="0"
         id="path4011"
         d="m 40,48 8,0 0,-8 -8,0 0,8 z" />
    </clipPath>
    <clipPath
       id="clipPath4029"
       clipPathUnits="userSpaceOnUse">
      <path
         inkscape:connector-curvature="0"
         id="path4031"
         d="m 14,20 36,0 0,-8 -36,0 0,8 z" />
    </clipPath>
    <clipPath
       id="clipPath2999"
       clipPathUnits="userSpaceOnUse">
      <path
         inkscape:connector-curvature="0"
         id="path3001"
         d="M 0,64 64,64 64,0 0,0 0,64 z" />
    </clipPath>
    <clipPath
       id="clipPath3011"
       clipPathUnits="userSpaceOnUse">
      <path
         inkscape:connector-curvature="0"
         id="path3013"
         d="m 16,50 32,0 0,-40 -32,0 0,40 z" />
    </clipPath>
    <clipPath
       id="clipPath3031"
       clipPathUnits="userSpaceOnUse">
      <path
         inkscape:connector-curvature="0"
         id="path3033"
         d="m 37.016,40.7064 10.984,0 0,-9.7064 -10.984,0 0,9.7064 z" />
    </clipPath>
    <clipPath
       id="clipPath3051"
       clipPathUnits="userSpaceOnUse">
      <path
         inkscape:connector-curvature="0"
         id="path3053"
         d="m 22,42 9.625,0 0,-2 -9.625,0 0,2 z" />
    </clipPath>
    <clipPath
       id="clipPath3065"
       clipPathUnits="userSpaceOnUse">
      <path
         inkscape:connector-curvature="0"
         id="path3067"
         d="m 22,32 20,0 0,-2 -20,0 0,2 z" />
    </clipPath>
    <clipPath
       id="clipPath3079"
       clipPathUnits="userSpaceOnUse">
      <path
         inkscape:connector-curvature="0"
         id="path3081"
         d="m 22,37 20,0 0,-2 -20,0 0,2 z" />
    </clipPath>
    <clipPath
       id="clipPath3093"
       clipPathUnits="userSpaceOnUse">
      <path
         inkscape:connector-curvature="0"
         id="path3095"
         d="m 22,27 20,0 0,-2 -20,0 0,2 z" />
    </clipPath>
    <clipPath
       id="clipPath3107"
       clipPathUnits="userSpaceOnUse">
      <path
         inkscape:connector-curvature="0"
         id="path3109"
         d="m 22,22 20,0 0,-2 -20,0 0,2 z" />
    </clipPath>
    <clipPath
       id="clipPath4113"
       clipPathUnits="userSpaceOnUse">
      <path
         inkscape:connector-curvature="0"
         id="path4115"
         d="M 0,64 64,64 64,0 0,0 0,64 z" />
    </clipPath>
    <clipPath
       id="clipPath4125"
       clipPathUnits="userSpaceOnUse">
      <path
         inkscape:connector-curvature="0"
         id="path4127"
         d="m 9,44.3637 46,0 L 55,16 9,16 9,44.3637 z" />
    </clipPath>
    <clipPath
       id="clipPath3834"
       clipPathUnits="userSpaceOnUse">
      <path
         inkscape:connector-curvature="0"
         id="path3836"
         d="M 0,64 64,64 64,0 0,0 0,64 z" />
    </clipPath>
    <clipPath
       id="clipPath3846"
       clipPathUnits="userSpaceOnUse">
      <path
         inkscape:connector-curvature="0"
         id="path3848"
         d="m 12,42 40,0 0,-26 -40,0 0,26 z" />
    </clipPath>
    <clipPath
       id="clipPath3874"
       clipPathUnits="userSpaceOnUse">
      <path
         inkscape:connector-curvature="0"
         id="path3876"
         d="m 12,42 40,0 0,-9 -40,0 0,9 z" />
    </clipPath>
  </defs>
  <sodipodi:namedview
     id="base"
     pagecolor="#ffffff"
     bordercolor="#666666"
     borderopacity="1.0"
     inkscape:pageopacity="0.0"
     inkscape:pageshadow="2"
     inkscape:zoom="3.959798"
     inkscape:cx="27.728951"
     inkscape:cy="48.104579"
     inkscape:document-units="px"
     inkscape:current-layer="layer1"
     showgrid="false"
     inkscape:window-width="1366"
     inkscape:window-height="705"
     inkscape:window-x="-4"
     inkscape:window-y="-4"
     inkscape:window-maximized="1" />
  <metadata
     id="metadata3926">
    <rdf:RDF>
      <cc:Work
         rdf:about="">
        <dc:format>image/svg+xml</dc:format>
        <dc:type
           rdf:resource="http://purl.org/dc/dcmitype/StillImage" />
        <dc:title></dc:title>
      </cc:Work>
    </rdf:RDF>
  </metadata>
  <g
     inkscape:label="Layer 1"
     inkscape:groupmode="layer"
     id="layer1"
     transform="translate(0,-972.36218)">
    <g
       transform="matrix(1.25,0,0,-1.25,0,1052.3622)"
       inkscape:label="Elegant_circle-icons"
       id="g3828">
      <g
         id="g3830">
        <g
           clip-path="url(#clipPath3834)"
           id="g3832">
          <g
             transform="translate(64,32)"
             id="g3838">
            <path
               id="path3840"
               style="fill:#e0e0d1;fill-opacity:1;fill-rule:nonzero;stroke:none"
               d="m 0,0 c 0,-17.673 -14.327,-32 -32,-32 -17.673,0 -32,14.327 -32,32 0,17.673 14.327,32 32,32 C -14.327,32 0,17.673 0,0"
               inkscape:connector-curvature="0" />
          </g>
          <g
             id="g3842">
            <g
               id="g3844" />
            <g
               id="g3850">
              <g
                 id="g3852"
                 clip-path="url(#clipPath3846)"
                 style="opacity:0.19999701">
                <g
                   id="g3854"
                   transform="translate(52,20)">
                  <path
                     id="path3856"
                     style="fill:#231f20;fill-opacity:1;fill-rule:nonzero;stroke:none"
                     d="m 0,0 c 0,-2.209 -1.791,-4 -4,-4 l -32,0 c -2.209,0 -4,1.791 -4,4 l 0,18 c 0,2.209 1.791,4 4,4 l 32,0 c 2.209,0 4,-1.791 4,-4 L 0,0 z"
                     inkscape:connector-curvature="0" />
                </g>
              </g>
            </g>
          </g>
          <g
             transform="translate(38,51)"
             id="g3858">
            <path
               id="path3860"
               style="fill:#4f5d73;fill-opacity:1;fill-rule:nonzero;stroke:none"
               d="m 0,0 -12,0 c -2.209,0 -4,-1.791 -4,-4 l 0,-20 c 0,-2.209 1.791,-4 4,-4 l 12,0 c 2.209,0 4,1.791 4,4 L 4,-4 C 4,-1.791 2.209,0 0,0 m 0,-24 -12,0 0,20 12,0 0,-20 z"
               inkscape:connector-curvature="0" />
          </g>
          <g
             transform="translate(12,35)"
             id="g3862">
            <path
               id="path3864"
               style="fill:#c75c5c;fill-opacity:1;fill-rule:nonzero;stroke:none"
               d="m 0,0 0,-13 c 0,-2.209 1.791,-4 4,-4 l 32,0 c 2.209,0 4,1.791 4,4 L 40,0 0,0 z"
               inkscape:connector-curvature="0" />
          </g>
          <g
             transform="translate(36,40)"
             id="g3866">
            <path
               id="path3868"
               style="fill:#f5cf87;fill-opacity:1;fill-rule:nonzero;stroke:none"
               d="m 0,0 -8,0 c -2.209,0 -4,-1.791 -4,-4 l 0,-3 c 0,-2.209 1.791,-4 4,-4 l 8,0 c 2.209,0 4,1.791 4,4 l 0,3 C 4,-1.791 2.209,0 0,0 m 0,-7 -8,0 0,3 8,0 0,-3 z"
               inkscape:connector-curvature="0" />
          </g>
          <g
             id="g3870">
            <g
               id="g3872" />
            <g
               id="g3878">
              <g
                 id="g3880"
                 clip-path="url(#clipPath3874)"
                 style="opacity:0.19999701">
                <g
                   id="g3882"
                   transform="translate(52,38)">
                  <path
                     id="path3884"
                     style="fill:#231f20;fill-opacity:1;fill-rule:nonzero;stroke:none"
                     d="m 0,0 c 0,2.209 -1.791,4 -4,4 l -32,0 c -2.209,0 -4,-1.791 -4,-4 l 0,-5 40,0 0,5 z"
                     inkscape:connector-curvature="0" />
                </g>
              </g>
            </g>
          </g>
          <g
             transform="translate(52,40)"
             id="g3886">
            <path
               id="path3888"
               style="fill:#c75c5c;fill-opacity:1;fill-rule:nonzero;stroke:none"
               d="m 0,0 c 0,2.209 -1.791,4 -4,4 l -32,0 c -2.209,0 -4,-1.791 -4,-4 l 0,-5 40,0 0,5 z"
               inkscape:connector-curvature="0" />
          </g>
        </g>
      </g>
    </g>
  </g>
</svg>
