<?xml version="1.0" encoding="UTF-8" standalone="no"?>
<!-- Created with Inkscape (http://www.inkscape.org/) -->

<svg
   xmlns:dc="http://purl.org/dc/elements/1.1/"
   xmlns:cc="http://creativecommons.org/ns#"
   xmlns:rdf="http://www.w3.org/1999/02/22-rdf-syntax-ns#"
   xmlns:svg="http://www.w3.org/2000/svg"
   xmlns="http://www.w3.org/2000/svg"
   version="1.1"
   width="80"
   height="80"
   id="svg3921">
  <defs
     id="defs3923">
    <clipPath
       id="clipPath3943">
      <path
         d="M 0,64 64,64 64,0 0,0 0,64 z"
         id="path3945" />
    </clipPath>
    <clipPath
       id="clipPath3963">
      <path
         d="m 24,43 16,0 0,-16 -16,0 0,16 z"
         id="path3965" />
    </clipPath>
    <clipPath
       id="clipPath3987">
      <path
         d="m 18,32 5,0 0,-5 -5,0 0,5 z"
         id="path3989" />
    </clipPath>
    <clipPath
       id="clipPath4009">
      <path
         d="m 40,48 8,0 0,-8 -8,0 0,8 z"
         id="path4011" />
    </clipPath>
    <clipPath
       id="clipPath4029">
      <path
         d="m 14,20 36,0 0,-8 -36,0 0,8 z"
         id="path4031" />
    </clipPath>
    <clipPath
       id="clipPath2999">
      <path
         d="M 0,64 64,64 64,0 0,0 0,64 z"
         id="path3001" />
    </clipPath>
    <clipPath
       id="clipPath3011">
      <path
         d="m 16,50 32,0 0,-40 -32,0 0,40 z"
         id="path3013" />
    </clipPath>
    <clipPath
       id="clipPath3031">
      <path
         d="m 37.016,40.7064 10.984,0 0,-9.7064 -10.984,0 0,9.7064 z"
         id="path3033" />
    </clipPath>
    <clipPath
       id="clipPath3051">
      <path
         d="m 22,42 9.625,0 0,-2 -9.625,0 0,2 z"
         id="path3053" />
    </clipPath>
    <clipPath
       id="clipPath3065">
      <path
         d="m 22,32 20,0 0,-2 -20,0 0,2 z"
         id="path3067" />
    </clipPath>
    <clipPath
       id="clipPath3079">
      <path
         d="m 22,37 20,0 0,-2 -20,0 0,2 z"
         id="path3081" />
    </clipPath>
    <clipPath
       id="clipPath3093">
      <path
         d="m 22,27 20,0 0,-2 -20,0 0,2 z"
         id="path3095" />
    </clipPath>
    <clipPath
       id="clipPath3107">
      <path
         d="m 22,22 20,0 0,-2 -20,0 0,2 z"
         id="path3109" />
    </clipPath>
    <clipPath
       id="clipPath4113">
      <path
         d="M 0,64 64,64 64,0 0,0 0,64 z"
         id="path4115" />
    </clipPath>
    <clipPath
       id="clipPath4125">
      <path
         d="m 9,44.3637 46,0 L 55,16 9,16 9,44.3637 z"
         id="path4127" />
    </clipPath>
    <clipPath
       id="clipPath3834">
      <path
         d="M 0,64 64,64 64,0 0,0 0,64 z"
         id="path3836" />
    </clipPath>
    <clipPath
       id="clipPath3846">
      <path
         d="m 12,42 40,0 0,-26 -40,0 0,26 z"
         id="path3848" />
    </clipPath>
    <clipPath
       id="clipPath3874">
      <path
         d="m 12,42 40,0 0,-9 -40,0 0,9 z"
         id="path3876" />
    </clipPath>
    <clipPath
       id="clipPath3615">
      <path
         d="M 0,64 64,64 64,0 0,0 0,64 z"
         id="path3617" />
    </clipPath>
    <clipPath
       id="clipPath3627">
      <path
         d="m 13,47.0663 32,0 0,-34.1326 -32,0 0,34.1326 z"
         id="path3629" />
    </clipPath>
    <clipPath
       id="clipPath3674">
      <path
         d="M 0,64 64,64 64,0 0,0 0,64 z"
         id="path3676" />
    </clipPath>
    <clipPath
       id="clipPath3686">
      <path
         d="m 12.2873,54 39.4254,0 0,-48 -39.4254,0 0,48 z"
         id="path3688" />
    </clipPath>
    <clipPath
       id="clipPath3193">
      <path
         d="M 0,64 64,64 64,0 0,0 0,64 z"
         id="path3195" />
    </clipPath>
    <clipPath
       id="clipPath3205">
      <path
         d="M 12,50 52,50 52,8 12,8 12,50 z"
         id="path3207" />
    </clipPath>
  </defs>
  <metadata
     id="metadata3926">
    <rdf:RDF>
      <cc:Work
         rdf:about="">
        <dc:format>image/svg+xml</dc:format>
        <dc:type
           rdf:resource="http://purl.org/dc/dcmitype/StillImage" />
        <dc:title></dc:title>
      </cc:Work>
    </rdf:RDF>
  </metadata>
  <g
     transform="translate(0,-972.36218)"
     id="layer1">
    <g
       transform="matrix(1.25,0,0,-1.25,0,1052.3622)"
       id="g3187">
      <g
         id="g3189">
        <g
           clip-path="url(#clipPath3193)"
           id="g3191">
          <g
             transform="translate(64,32)"
             id="g3197">
            <path
               d="m 0,0 c 0,-17.673 -14.327,-32 -32,-32 -17.673,0 -32,14.327 -32,32 0,17.673 14.327,32 32,32 C -14.327,32 0,17.673 0,0"
               id="path3199"
               style="fill:#77b3d4;fill-opacity:1;fill-rule:nonzero;stroke:none" />
          </g>
          <g
             id="g3201">
            <g
               id="g3203" />
            <g
               id="g3209">
              <g
                 clip-path="url(#clipPath3205)"
                 id="g3211"
                 style="opacity:0.19999701">
                <g
                   transform="translate(52,32)"
                   id="g3213">
                  <path
                     d="m 0,0 c 0,9.941 -8.954,18 -20,18 -11.046,0 -20,-8.059 -20,-18 0,-9.569 8.303,-17.372 18.775,-17.944 C -20.537,-21.597 -20,-24 -20,-24 c 0,0 5.045,3.044 9.639,8.23 C -4.186,-12.706 0,-6.795 0,0"
                     id="path3215"
                     style="fill:#231f20;fill-opacity:1;fill-rule:nonzero;stroke:none" />
                </g>
              </g>
            </g>
          </g>
          <g
             transform="translate(49,35.2)"
             id="g3217">
            <path
               d="m 0,0 c 0,-14.963 -17,-25.2 -17,-25.2 0,0 -9.389,42 0,42 C -7.611,16.8 0,9.278 0,0"
               id="path3219"
               style="fill:#ffffff;fill-opacity:1;fill-rule:nonzero;stroke:none" />
          </g>
          <g
             transform="translate(52,34)"
             id="g3221">
            <path
               d="m 0,0 c 0,-9.941 -8.954,-18 -20,-18 -11.046,0 -20,8.059 -20,18 0,9.941 8.954,18 20,18 C -8.954,18 0,9.941 0,0"
               id="path3223"
               style="fill:#ffffff;fill-opacity:1;fill-rule:nonzero;stroke:none" />
          </g>
          <g
             transform="translate(34,34)"
             id="g3225">
            <path
               d="m 0,0 c 0,1.105 -0.895,2 -2,2 -1.105,0 -2,-0.895 -2,-2 0,-1.105 0.895,-2 2,-2 1.105,0 2,0.895 2,2"
               id="path3227"
               style="fill:#4f5d73;fill-opacity:1;fill-rule:nonzero;stroke:none" />
          </g>
          <g
             transform="translate(42,34)"
             id="g3229">
            <path
               d="m 0,0 c 0,1.105 -0.895,2 -2,2 -1.105,0 -2,-0.895 -2,-2 0,-1.105 0.895,-2 2,-2 1.105,0 2,0.895 2,2"
               id="path3231"
               style="fill:#4f5d73;fill-opacity:1;fill-rule:nonzero;stroke:none" />
          </g>
          <g
             transform="translate(26,34)"
             id="g3233">
            <path
               d="m 0,0 c 0,1.105 -0.895,2 -2,2 -1.105,0 -2,-0.895 -2,-2 0,-1.105 0.895,-2 2,-2 1.105,0 2,0.895 2,2"
               id="path3235"
               style="fill:#4f5d73;fill-opacity:1;fill-rule:nonzero;stroke:none" />
          </g>
        </g>
      </g>
    </g>
  </g>
</svg>
