<?xml version="1.0" encoding="UTF-8" standalone="no"?>
<!-- Created with Inkscape (http://www.inkscape.org/) -->

<svg
   xmlns:dc="http://purl.org/dc/elements/1.1/"
   xmlns:cc="http://creativecommons.org/ns#"
   xmlns:rdf="http://www.w3.org/1999/02/22-rdf-syntax-ns#"
   xmlns:svg="http://www.w3.org/2000/svg"
   xmlns="http://www.w3.org/2000/svg"
   xmlns:sodipodi="http://sodipodi.sourceforge.net/DTD/sodipodi-0.dtd"
   xmlns:inkscape="http://www.inkscape.org/namespaces/inkscape"
   width="80"
   height="80"
   id="svg3921"
   version="1.1"
   inkscape:version="0.48.4 r9939"
   sodipodi:docname="job.svg">
  <defs
     id="defs3923">
    <clipPath
       id="clipPath3943"
       clipPathUnits="userSpaceOnUse">
      <path
         inkscape:connector-curvature="0"
         id="path3945"
         d="M 0,64 64,64 64,0 0,0 0,64 z" />
    </clipPath>
    <clipPath
       id="clipPath3963"
       clipPathUnits="userSpaceOnUse">
      <path
         inkscape:connector-curvature="0"
         id="path3965"
         d="m 24,43 16,0 0,-16 -16,0 0,16 z" />
    </clipPath>
    <clipPath
       id="clipPath3987"
       clipPathUnits="userSpaceOnUse">
      <path
         inkscape:connector-curvature="0"
         id="path3989"
         d="m 18,32 5,0 0,-5 -5,0 0,5 z" />
    </clipPath>
    <clipPath
       id="clipPath4009"
       clipPathUnits="userSpaceOnUse">
      <path
         inkscape:connector-curvature="0"
         id="path4011"
         d="m 40,48 8,0 0,-8 -8,0 0,8 z" />
    </clipPath>
    <clipPath
       id="clipPath4029"
       clipPathUnits="userSpaceOnUse">
      <path
         inkscape:connector-curvature="0"
         id="path4031"
         d="m 14,20 36,0 0,-8 -36,0 0,8 z" />
    </clipPath>
    <clipPath
       id="clipPath2999"
       clipPathUnits="userSpaceOnUse">
      <path
         inkscape:connector-curvature="0"
         id="path3001"
         d="M 0,64 64,64 64,0 0,0 0,64 z" />
    </clipPath>
    <clipPath
       id="clipPath3011"
       clipPathUnits="userSpaceOnUse">
      <path
         inkscape:connector-curvature="0"
         id="path3013"
         d="m 16,50 32,0 0,-40 -32,0 0,40 z" />
    </clipPath>
    <clipPath
       id="clipPath3031"
       clipPathUnits="userSpaceOnUse">
      <path
         inkscape:connector-curvature="0"
         id="path3033"
         d="m 37.016,40.7064 10.984,0 0,-9.7064 -10.984,0 0,9.7064 z" />
    </clipPath>
    <clipPath
       id="clipPath3051"
       clipPathUnits="userSpaceOnUse">
      <path
         inkscape:connector-curvature="0"
         id="path3053"
         d="m 22,42 9.625,0 0,-2 -9.625,0 0,2 z" />
    </clipPath>
    <clipPath
       id="clipPath3065"
       clipPathUnits="userSpaceOnUse">
      <path
         inkscape:connector-curvature="0"
         id="path3067"
         d="m 22,32 20,0 0,-2 -20,0 0,2 z" />
    </clipPath>
    <clipPath
       id="clipPath3079"
       clipPathUnits="userSpaceOnUse">
      <path
         inkscape:connector-curvature="0"
         id="path3081"
         d="m 22,37 20,0 0,-2 -20,0 0,2 z" />
    </clipPath>
    <clipPath
       id="clipPath3093"
       clipPathUnits="userSpaceOnUse">
      <path
         inkscape:connector-curvature="0"
         id="path3095"
         d="m 22,27 20,0 0,-2 -20,0 0,2 z" />
    </clipPath>
    <clipPath
       id="clipPath3107"
       clipPathUnits="userSpaceOnUse">
      <path
         inkscape:connector-curvature="0"
         id="path3109"
         d="m 22,22 20,0 0,-2 -20,0 0,2 z" />
    </clipPath>
    <clipPath
       id="clipPath4113"
       clipPathUnits="userSpaceOnUse">
      <path
         inkscape:connector-curvature="0"
         id="path4115"
         d="M 0,64 64,64 64,0 0,0 0,64 z" />
    </clipPath>
    <clipPath
       id="clipPath4125"
       clipPathUnits="userSpaceOnUse">
      <path
         inkscape:connector-curvature="0"
         id="path4127"
         d="m 9,44.3637 46,0 L 55,16 9,16 9,44.3637 z" />
    </clipPath>
    <clipPath
       id="clipPath3834"
       clipPathUnits="userSpaceOnUse">
      <path
         inkscape:connector-curvature="0"
         id="path3836"
         d="M 0,64 64,64 64,0 0,0 0,64 z" />
    </clipPath>
    <clipPath
       id="clipPath3846"
       clipPathUnits="userSpaceOnUse">
      <path
         inkscape:connector-curvature="0"
         id="path3848"
         d="m 12,42 40,0 0,-26 -40,0 0,26 z" />
    </clipPath>
    <clipPath
       id="clipPath3874"
       clipPathUnits="userSpaceOnUse">
      <path
         inkscape:connector-curvature="0"
         id="path3876"
         d="m 12,42 40,0 0,-9 -40,0 0,9 z" />
    </clipPath>
    <clipPath
       id="clipPath3615"
       clipPathUnits="userSpaceOnUse">
      <path
         inkscape:connector-curvature="0"
         id="path3617"
         d="M 0,64 64,64 64,0 0,0 0,64 z" />
    </clipPath>
    <clipPath
       id="clipPath3627"
       clipPathUnits="userSpaceOnUse">
      <path
         inkscape:connector-curvature="0"
         id="path3629"
         d="m 13,47.0663 32,0 0,-34.1326 -32,0 0,34.1326 z" />
    </clipPath>
  </defs>
  <sodipodi:namedview
     id="base"
     pagecolor="#ffffff"
     bordercolor="#666666"
     borderopacity="1.0"
     inkscape:pageopacity="0.0"
     inkscape:pageshadow="2"
     inkscape:zoom="3.959798"
     inkscape:cx="27.728951"
     inkscape:cy="48.104579"
     inkscape:document-units="px"
     inkscape:current-layer="layer1"
     showgrid="false"
     inkscape:window-width="1366"
     inkscape:window-height="705"
     inkscape:window-x="-4"
     inkscape:window-y="-4"
     inkscape:window-maximized="1" />
  <metadata
     id="metadata3926">
    <rdf:RDF>
      <cc:Work
         rdf:about="">
        <dc:format>image/svg+xml</dc:format>
        <dc:type
           rdf:resource="http://purl.org/dc/dcmitype/StillImage" />
        <dc:title></dc:title>
      </cc:Work>
    </rdf:RDF>
  </metadata>
  <g
     inkscape:label="Layer 1"
     inkscape:groupmode="layer"
     id="layer1"
     transform="translate(0,-972.36218)">
    <g
       transform="matrix(1.25,0,0,-1.25,0,1052.3622)"
       inkscape:label="Elegant_circle-icons"
       id="g3609">
      <g
         id="g3611">
        <g
           clip-path="url(#clipPath3615)"
           id="g3613">
          <g
             transform="translate(64,32)"
             id="g3619">
            <path
               id="path3621"
               style="fill:#76c2af;fill-opacity:1;fill-rule:nonzero;stroke:none"
               d="m 0,0 c 0,-17.673 -14.327,-32 -32,-32 -17.673,0 -32,14.327 -32,32 0,17.673 14.327,32 32,32 C -14.327,32 0,17.673 0,0"
               inkscape:connector-curvature="0" />
          </g>
          <g
             id="g3623">
            <g
               id="g3625" />
            <g
               id="g3631">
              <g
                 id="g3633"
                 clip-path="url(#clipPath3627)"
                 style="opacity:0.19999701">
                <g
                   id="g3635"
                   transform="translate(13.8513,14.5801)">
                  <path
                     id="path3637"
                     style="fill:#231f20;fill-opacity:1;fill-rule:nonzero;stroke:none"
                     d="m 0,0 c 1.596,-2.071 4.892,-2.206 7.362,-0.303 1.005,0.774 2.787,2.879 2.787,7.192 l 0,13.337 19,3.629 0,-8.418 c 0,-2.97 -2.406,-3.652 -3.21,-3.804 C 25.869,11.624 25.8,11.607 25.73,11.595 25.694,11.59 25.64,11.584 25.64,11.584 l 0.013,-0.004 c -0.951,-0.173 -1.909,-0.572 -2.769,-1.233 -2.47,-1.903 -3.181,-5.125 -1.585,-7.196 1.596,-2.072 4.892,-2.208 7.362,-0.305 1.25,0.964 2.488,2.824 2.488,5.73 l 0,22.329 c 0,1.178 -0.956,1.844 -2.134,1.483 L 9.815,28.759 C 8.638,28.401 8.149,27.153 8.149,25.975 l 0,-12.993 C 8.149,10.009 5.404,8.631 4.602,8.482 4.561,8.476 4.521,8.463 4.478,8.457 4.373,8.439 4.305,8.433 4.305,8.433 L 4.329,8.422 C 3.386,8.245 2.436,7.851 1.585,7.196 -0.885,5.293 -1.594,2.071 0,0"
                     inkscape:connector-curvature="0" />
                </g>
              </g>
            </g>
          </g>
          <g
             transform="translate(13.8513,16.5801)"
             id="g3639">
            <path
               id="path3641"
               style="fill:#ffffff;fill-opacity:1;fill-rule:nonzero;stroke:none"
               d="m 0,0 c 1.596,-2.071 4.892,-2.206 7.362,-0.303 1.005,0.774 2.787,2.879 2.787,7.192 l 0,13.337 19,3.629 0,-8.418 c 0,-2.97 -2.406,-3.652 -3.21,-3.804 C 25.869,11.624 25.8,11.607 25.73,11.595 25.694,11.59 25.64,11.584 25.64,11.584 l 0.013,-0.004 c -0.951,-0.173 -1.909,-0.572 -2.769,-1.233 -2.47,-1.903 -3.181,-5.125 -1.585,-7.196 1.596,-2.072 4.892,-2.208 7.362,-0.305 1.25,0.964 2.488,2.824 2.488,5.73 l 0,22.329 c 0,1.178 -0.956,1.844 -2.134,1.483 L 9.815,28.759 C 8.638,28.401 8.149,27.153 8.149,25.975 l 0,-12.993 C 8.149,10.009 5.404,8.631 4.602,8.482 4.561,8.476 4.521,8.463 4.478,8.457 4.373,8.439 4.305,8.433 4.305,8.433 L 4.329,8.422 C 3.386,8.245 2.436,7.851 1.585,7.196 -0.885,5.293 -1.594,2.071 0,0"
               inkscape:connector-curvature="0" />
          </g>
        </g>
      </g>
    </g>
  </g>
</svg>
