<?xml version="1.0" encoding="UTF-8" standalone="no"?>
<!-- Created with Inkscape (http://www.inkscape.org/) -->

<svg
   xmlns:dc="http://purl.org/dc/elements/1.1/"
   xmlns:cc="http://creativecommons.org/ns#"
   xmlns:rdf="http://www.w3.org/1999/02/22-rdf-syntax-ns#"
   xmlns:svg="http://www.w3.org/2000/svg"
   xmlns="http://www.w3.org/2000/svg"
   version="1.1"
   width="80"
   height="80"
   id="svg3921">
  <defs
     id="defs3923">
    <clipPath
       id="clipPath3943">
      <path
         d="M 0,64 64,64 64,0 0,0 0,64 z"
         id="path3945" />
    </clipPath>
    <clipPath
       id="clipPath3963">
      <path
         d="m 24,43 16,0 0,-16 -16,0 0,16 z"
         id="path3965" />
    </clipPath>
    <clipPath
       id="clipPath3987">
      <path
         d="m 18,32 5,0 0,-5 -5,0 0,5 z"
         id="path3989" />
    </clipPath>
    <clipPath
       id="clipPath4009">
      <path
         d="m 40,48 8,0 0,-8 -8,0 0,8 z"
         id="path4011" />
    </clipPath>
    <clipPath
       id="clipPath4029">
      <path
         d="m 14,20 36,0 0,-8 -36,0 0,8 z"
         id="path4031" />
    </clipPath>
    <clipPath
       id="clipPath2999">
      <path
         d="M 0,64 64,64 64,0 0,0 0,64 z"
         id="path3001" />
    </clipPath>
    <clipPath
       id="clipPath3011">
      <path
         d="m 16,50 32,0 0,-40 -32,0 0,40 z"
         id="path3013" />
    </clipPath>
    <clipPath
       id="clipPath3031">
      <path
         d="m 37.016,40.7064 10.984,0 0,-9.7064 -10.984,0 0,9.7064 z"
         id="path3033" />
    </clipPath>
    <clipPath
       id="clipPath3051">
      <path
         d="m 22,42 9.625,0 0,-2 -9.625,0 0,2 z"
         id="path3053" />
    </clipPath>
    <clipPath
       id="clipPath3065">
      <path
         d="m 22,32 20,0 0,-2 -20,0 0,2 z"
         id="path3067" />
    </clipPath>
    <clipPath
       id="clipPath3079">
      <path
         d="m 22,37 20,0 0,-2 -20,0 0,2 z"
         id="path3081" />
    </clipPath>
    <clipPath
       id="clipPath3093">
      <path
         d="m 22,27 20,0 0,-2 -20,0 0,2 z"
         id="path3095" />
    </clipPath>
    <clipPath
       id="clipPath3107">
      <path
         d="m 22,22 20,0 0,-2 -20,0 0,2 z"
         id="path3109" />
    </clipPath>
    <clipPath
       id="clipPath4113">
      <path
         d="M 0,64 64,64 64,0 0,0 0,64 z"
         id="path4115" />
    </clipPath>
    <clipPath
       id="clipPath4125">
      <path
         d="m 9,44.3637 46,0 L 55,16 9,16 9,44.3637 z"
         id="path4127" />
    </clipPath>
    <clipPath
       id="clipPath3834">
      <path
         d="M 0,64 64,64 64,0 0,0 0,64 z"
         id="path3836" />
    </clipPath>
    <clipPath
       id="clipPath3846">
      <path
         d="m 12,42 40,0 0,-26 -40,0 0,26 z"
         id="path3848" />
    </clipPath>
    <clipPath
       id="clipPath3874">
      <path
         d="m 12,42 40,0 0,-9 -40,0 0,9 z"
         id="path3876" />
    </clipPath>
    <clipPath
       id="clipPath3615">
      <path
         d="M 0,64 64,64 64,0 0,0 0,64 z"
         id="path3617" />
    </clipPath>
    <clipPath
       id="clipPath3627">
      <path
         d="m 13,47.0663 32,0 0,-34.1326 -32,0 0,34.1326 z"
         id="path3629" />
    </clipPath>
    <clipPath
       id="clipPath3674">
      <path
         d="M 0,64 64,64 64,0 0,0 0,64 z"
         id="path3676" />
    </clipPath>
    <clipPath
       id="clipPath3686">
      <path
         d="m 12.2873,54 39.4254,0 0,-48 -39.4254,0 0,48 z"
         id="path3688" />
    </clipPath>
  </defs>
  <metadata
     id="metadata3926">
    <rdf:RDF>
      <cc:Work
         rdf:about="">
        <dc:format>image/svg+xml</dc:format>
        <dc:type
           rdf:resource="http://purl.org/dc/dcmitype/StillImage" />
        <dc:title></dc:title>
      </cc:Work>
    </rdf:RDF>
  </metadata>
  <g
     transform="translate(0,-972.36218)"
     id="layer1">
    <g
       transform="matrix(1.25,0,0,-1.25,0,1052.3622)"
       id="g3668">
      <g
         id="g3670">
        <g
           clip-path="url(#clipPath3674)"
           id="g3672">
          <g
             transform="translate(64,32)"
             id="g3678">
            <path
               d="m 0,0 c 0,-17.673 -14.327,-32 -32,-32 -17.673,0 -32,14.327 -32,32 0,17.673 14.327,32 32,32 C -14.327,32 0,17.673 0,0"
               id="path3680"
               style="fill:#4f5d73;fill-opacity:1;fill-rule:nonzero;stroke:none" />
          </g>
          <g
             id="g3682">
            <g
               id="g3684" />
            <g
               id="g3690">
              <g
                 clip-path="url(#clipPath3686)"
                 id="g3692"
                 style="opacity:0.19999701">
                <g
                   transform="translate(43.9048,16.457)"
                   id="g3694">
                  <path
                     d="m 0,0 c -3.821,1.66 -5.217,4.242 -5.643,6.469 2.752,2.214 4.944,5.756 6.148,9.572 1.239,1.58 1.961,3.226 1.961,4.621 0,0.955 -0.347,1.645 -0.955,2.158 -0.203,8.105 -5.941,14.613 -13.038,14.713 -0.056,10e-4 -0.11,0.01 -0.165,0.01 -0.022,0 -0.043,-0.004 -0.065,-0.004 -7.052,-0.039 -12.782,-6.41 -13.125,-14.408 -0.884,-0.529 -1.394,-1.305 -1.394,-2.469 0,-1.641 0.993,-3.63 2.663,-5.448 1.188,-3.327 3.118,-6.38 5.501,-8.438 -0.355,-2.292 -1.7,-5.039 -5.698,-6.776 -2.158,-0.938 -6.105,-1.781 -7.807,-2.649 4.362,-4.769 12.624,-7.77 19.588,-7.805 l 0.099,-0.002 c 0.009,0 0.017,-0.001 0.025,-0.001 7.014,0 15.325,3.01 19.713,7.808 C 6.105,-1.781 2.159,-0.938 0,0"
                     id="path3696"
                     style="fill:#231f20;fill-opacity:1;fill-rule:nonzero;stroke:none" />
                </g>
              </g>
            </g>
          </g>
          <g
             transform="translate(43.9048,18.457)"
             id="g3698">
            <path
               d="m 0,0 c -3.821,1.66 -5.217,4.242 -5.643,6.469 2.752,2.214 4.944,5.756 6.148,9.572 1.239,1.58 1.961,3.226 1.961,4.621 0,0.955 -0.347,1.645 -0.955,2.158 -0.203,8.105 -5.941,14.613 -13.038,14.713 -0.056,10e-4 -0.11,0.01 -0.165,0.01 -0.022,0 -0.043,-0.004 -0.065,-0.004 -7.052,-0.039 -12.782,-6.41 -13.125,-14.408 -0.884,-0.529 -1.394,-1.305 -1.394,-2.469 0,-1.641 0.993,-3.63 2.663,-5.448 1.188,-3.327 3.118,-6.38 5.501,-8.438 -0.355,-2.292 -1.7,-5.039 -5.698,-6.776 -2.158,-0.938 -6.105,-1.781 -7.807,-2.649 4.362,-4.769 12.624,-7.77 19.588,-7.805 l 0.099,-0.002 c 0.009,0 0.017,-0.001 0.025,-0.001 7.014,0 15.325,3.01 19.713,7.808 C 6.105,-1.781 2.159,-0.938 0,0"
               id="path3700"
               style="fill:#ffffff;fill-opacity:1;fill-rule:nonzero;stroke:none" />
          </g>
        </g>
      </g>
    </g>
  </g>
</svg>
